<svg width="144" height="144" viewBox="0 0 144 144" fill="none" xmlns="http://www.w3.org/2000/svg">
<rect x="24" y="24" width="120" height="120" rx="20" fill="white"/>
<ellipse cx="43.5" cy="46.5" rx="35.5" ry="22.5" fill="#F19020"/>
<path d="M21.7532 72.4165L21.6574 60.5031L31.6222 65.7427L21.7532 72.4165Z" fill="#F19020"/>
<path d="M100.194 127.517L87.0185 116.119L102.395 110.235L100.194 127.517Z" fill="#0274CA"/>
<circle cx="38.5" cy="53.5" r="1.5" fill="white"/>
<ellipse cx="83" cy="81.5" rx="53" ry="34.5" fill="#0274CA"/>
<path d="M61.4999 73.5V73.5C62.8728 63.7317 76.2679 62.0361 80.0316 71.1541L80.5662 72.4491C80.8544 73.1475 81.0631 73.8761 81.1883 74.6212L84.1138 92.0391C85.8861 102.591 100.601 103.73 103.976 93.5763V93.5763C104.323 92.5322 104.5 91.4392 104.5 90.339L104.5 85" stroke="white" stroke-width="3"/>
<path d="M41.7302 33.4717L42.6625 33.0646C44.2 32.3934 45.9501 32.406 47.4777 33.0993L47.6313 33.169C50.5238 34.4817 51.7811 37.9422 50.4684 40.8347V40.8347C49.7646 42.3856 48.38 43.5543 46.7275 43.9666V43.9666C46.4537 44.0349 46.175 44.0824 45.894 44.1085L45.7755 44.1196C43.2213 44.3574 40.9905 45.9459 39.9304 48.2819L39.0809 50.1537" stroke="white" stroke-width="3"/>
<circle cx="53.5" cy="83.5" r="2.5" fill="#5FCE8C"/>
<circle cx="115.5" cy="78.5" r="2.5" fill="#FABB1C"/>
</svg>
