<svg width="443" height="359" viewBox="0 0 443 359" fill="none" xmlns="http://www.w3.org/2000/svg">
<g clip-path="url(#clip0_98_450)">
<path d="M429 130.375C429 192.956 372.354 218 312.268 218C252.183 218 198.5 182.081 198.5 119.5C198.5 56.9193 252.183 19 312.268 19C372.354 19 429 67.7947 429 130.375Z" fill="#E5F5FA"/>
<path d="M421 56.3684C421 78.1857 405.844 90 385.947 90C366.051 90 347 81.9226 347 60.1053C347 38.2879 370.103 22.5 390 22.5C409.897 22.5 421 34.5511 421 56.3684Z" fill="#FBAF17"/>
<path d="M396.541 36.8015L412.541 -0.198485" stroke="#FBAF17" stroke-width="3" stroke-linecap="round"/>
<path d="M369.582 29.274L350.582 0.274047" stroke="#FBAF17" stroke-width="3" stroke-linecap="round"/>
<path d="M356.892 48.488L320.892 40.488" stroke="#FBAF17" stroke-width="3" stroke-linecap="round"/>
<path d="M361.255 69.4299L329.255 88.4299" stroke="#FBAF17" stroke-width="3" stroke-linecap="round"/>
<path d="M374.483 79.1279L365.483 113.128" stroke="#FBAF17" stroke-width="3" stroke-linecap="round"/>
<path d="M407.743 49.5713L442.743 28.5713" stroke="#FBAF17" stroke-width="3" stroke-linecap="round"/>
<path d="M411.135 70.5187L443.135 79.5187" stroke="#FBAF17" stroke-width="3" stroke-linecap="round"/>
<path d="M393.45 79.7822L408.45 110.782" stroke="#FBAF17" stroke-width="3" stroke-linecap="round"/>
<path d="M276 359.828C276 394.717 214.215 423 138 423C61.7847 423 0 394.717 0 359.828C0 324.939 44.2847 250.5 120.5 250.5C196.715 250.5 276 324.939 276 359.828Z" fill="#127CCB"/>
<path d="M102.449 287.035C101.981 300.783 90.2366 310.846 84.2202 323.217C74.7304 342.73 112.651 364.001 82.5 364.001C44.9446 364.001 -4.4464 367.219 -0.500002 358.719C5 317 37.5 270 82 257.5C100.962 254.129 103.589 253.598 102.449 287.035Z" fill="#5FCE8C"/>
<path d="M212.193 302.276C206.835 296.469 197.792 293.741 191.235 298.15C148.76 326.714 154.311 300.884 157.42 284.492C158.954 276.409 153.886 277.236 146.851 281.501C143.386 283.602 140.463 284.405 138.114 284.21C123.393 282.984 119.944 248.463 134.588 250.408C143.058 251.532 159.162 256.084 187.975 266.184C267.469 300.956 233.684 325.573 212.193 302.276Z" fill="#5FCE8C"/>
<path d="M231 168.407C231 176.994 221.436 190.576 207.385 194.743C201.941 196.358 197.066 195.532 193.601 191.032C189.757 186.039 187.168 178.154 191.475 173.555C191.978 173.017 192.516 172.493 193.086 171.991C196.442 169.033 201.083 168.264 205.522 167.707C211.135 167.002 219.188 166.293 231 168.407Z" fill="#5FCE8C"/>
<path d="M296.707 220.479C293.423 224.613 283.638 227.502 275.294 224.154C272.049 222.852 270.016 220.584 270.074 217.088C270.139 213.221 271.904 208.441 275.728 207.868C276.175 207.801 276.634 207.753 277.1 207.729C279.853 207.583 282.388 208.989 284.743 210.421C287.709 212.225 291.846 214.958 296.707 220.479Z" fill="#5FCE8C"/>
<path d="M376.717 245.925C375.725 251.11 368.398 258.209 359.453 259.113C355.973 259.465 353.121 258.399 351.55 255.275C349.814 251.82 349.16 246.766 352.282 244.484C352.647 244.217 353.032 243.962 353.433 243.724C355.804 242.318 358.702 242.388 361.453 242.564C364.917 242.786 369.85 243.289 376.717 245.925Z" fill="#5FCE8C"/>
<path d="M264.045 252.444C258.401 255.943 245.591 255.208 237.135 247.701C233.846 244.781 232.403 241.234 233.956 237.119C235.675 232.569 239.794 227.66 244.565 228.605C245.123 228.716 245.687 228.855 246.249 229.023C249.569 230.02 251.973 232.761 254.153 235.456C256.898 238.851 260.635 243.844 264.045 252.444Z" fill="#5FCE8C"/>
<path d="M151.5 97.5C151.5 97.5 151.5 97.5 92.4999 102C35.0001 107.5 35 107.5 35 107.5C35 98.6634 62.8629 82 96 82C129.137 82 151.5 88.6634 151.5 97.5Z" fill="#0A3B5F"/>
<rect x="96" y="105.423" width="59.316" height="54.3621" rx="3" transform="rotate(-4.27636 96 105.423)" fill="#D6F5FF"/>
<rect x="96" y="105.423" width="59.316" height="54.3621" rx="3" transform="rotate(-4.27636 96 105.423)" fill="#D6F5FF"/>
<rect x="34.1736" y="109.797" width="59.316" height="54.3621" rx="3" transform="rotate(-4.55432 34.1736 109.797)" fill="#D6F5FF"/>
<rect x="34.1736" y="109.797" width="59.316" height="54.3621" rx="3" transform="rotate(-4.55432 34.1736 109.797)" fill="#D6F5FF"/>
<path d="M151.173 156.462C130.212 157.743 141.788 157.036 130.212 157.743C118.635 158.451 130.212 157.743 109.251 159.025C108.56 147.724 117.384 137.989 128.961 137.282C140.537 136.574 150.482 145.161 151.173 156.462Z" fill="#0A3B5F"/>
<path d="M146.865 157.05C130.423 158.055 139.504 157.5 130.423 158.055C121.343 158.611 130.423 158.055 113.981 159.061C113.439 150.196 120.361 142.56 129.442 142.005C138.523 141.45 146.323 148.186 146.865 157.05Z" fill="#D6F5FF"/>
<line x1="109.232" y1="151.027" x2="130.232" y2="156.027" stroke="#D6F5FF" stroke-width="2"/>
<line x1="109.232" y1="151.027" x2="130.232" y2="156.027" stroke="#D6F5FF" stroke-width="2"/>
<line x1="109.232" y1="151.027" x2="130.232" y2="156.027" stroke="#D6F5FF" stroke-width="2"/>
<line x1="109.232" y1="151.027" x2="130.232" y2="156.027" stroke="#D6F5FF" stroke-width="2"/>
<line x1="117.871" y1="135.508" x2="130.871" y2="158.508" stroke="#D6F5FF" stroke-width="2"/>
<line x1="117.871" y1="135.508" x2="130.871" y2="158.508" stroke="#D6F5FF" stroke-width="2"/>
<line x1="117.871" y1="135.508" x2="130.871" y2="158.508" stroke="#D6F5FF" stroke-width="2"/>
<line x1="117.871" y1="135.508" x2="130.871" y2="158.508" stroke="#D6F5FF" stroke-width="2"/>
<line x1="139.938" y1="138.346" x2="132.938" y2="157.346" stroke="#D6F5FF" stroke-width="2"/>
<line x1="139.938" y1="138.346" x2="132.938" y2="157.346" stroke="#D6F5FF" stroke-width="2"/>
<line x1="139.938" y1="138.346" x2="132.938" y2="157.346" stroke="#D6F5FF" stroke-width="2"/>
<line x1="139.938" y1="138.346" x2="132.938" y2="157.346" stroke="#D6F5FF" stroke-width="2"/>
<line x1="135.699" y1="156.046" x2="154.699" y2="150.046" stroke="#D6F5FF" stroke-width="2"/>
<line x1="135.699" y1="156.046" x2="154.699" y2="150.046" stroke="#D6F5FF" stroke-width="2"/>
<line x1="135.699" y1="156.046" x2="154.699" y2="150.046" stroke="#D6F5FF" stroke-width="2"/>
<line x1="135.699" y1="156.046" x2="154.699" y2="150.046" stroke="#D6F5FF" stroke-width="2"/>
<path d="M34 148.5C34 157.06 34 148.5 34 162.5C24.5 162 20 159.56 20 151C20 142.44 26.5 131 34 133C34 148.5 34 139.94 34 148.5Z" fill="#127CCB"/>
<path d="M161 136C161 127.44 161 136 161 122C170.5 122.5 175 124.94 175 133.5C175 142.06 168.5 153.5 161 151.5C161 136 161 144.56 161 136Z" fill="#127CCB"/>
<path d="M34 172.7C34 170.612 35.6066 168.875 37.6887 168.712L164.866 158.784C166.925 158.623 168.768 160.056 169.119 162.092L170.259 168.699C170.657 171.012 168.989 173.169 166.651 173.365L38.3346 184.136C36.0017 184.332 34 182.491 34 180.15V172.7Z" fill="#127CCB"/>
<path d="M37 217.158C37 215.087 38.5805 213.358 40.643 213.174L172.143 201.39C174.484 201.181 176.5 203.024 176.5 205.374V215.329C176.5 217.406 174.911 219.137 172.843 219.315L41.3428 230.626C39.007 230.827 37 228.986 37 226.641V217.158Z" fill="#F19020"/>
<path d="M65 191.259C65 189.147 66.6433 187.398 68.7522 187.267L133.252 183.264C135.554 183.121 137.5 184.949 137.5 187.256V197.792C137.5 199.884 135.888 201.622 133.803 201.78L69.3026 206.674C66.9809 206.85 65 205.013 65 202.685V191.259Z" fill="#5FCE8C"/>
<path d="M62.5 198C62.5 205.18 57.4036 211 50.5 211C43.5964 211 38 205.18 38 198C38 190.82 43.5964 185 50.5 185C57.4036 185 62.5 190.82 62.5 198Z" fill="#FBAF17"/>
<path d="M163 190C163 197.18 157.404 201.5 150.5 201.5C143.596 201.5 139.5 197.18 139.5 190C139.5 182.82 143.596 177 150.5 177C157.404 177 163 182.82 163 190Z" fill="#FBAF17"/>
<path d="M42.96 230.002L42.96 223.5L67.5 221.5L67.96 228.002" stroke="#F1A247"/>
<path d="M139.96 222.002L139.96 215.5L164.5 213.5L164.96 220.002" stroke="#F1A247"/>
<path d="M69.5002 243C69.5002 254.046 71.0002 263 57.5002 263C47.0002 264 45.5 254.046 45.5 243C44.4998 233 40.5 224.5 57.5002 223C71.944 221.725 69.5002 231.954 69.5002 243Z" fill="#0A3B5F"/>
<path d="M165.424 235C165.424 246.046 168.924 255 155.424 255C144.924 256 143.424 246.046 143.424 235C143.424 222 140.924 214.28 155.424 213C165.424 212.117 167.5 220.5 165.424 235Z" fill="#0A3B5F"/>
</g>
<defs>
<clipPath id="clip0_98_450">
<rect width="443" height="359" fill="white"/>
</clipPath>
</defs>
</svg>
