<svg width="520" height="467" viewBox="0 0 520 467" fill="none" xmlns="http://www.w3.org/2000/svg">
<g clip-path="url(#clip0_90_1758)">
<path d="M463 248.997C463 334.386 330.194 429 212.246 429C94.2982 429 37 364.857 37 279.467C37 194.078 150.084 91 268.032 91C385.98 91 463 163.607 463 248.997Z" fill="#D0FDE5"/>
<path d="M228.127 201.856C241.975 202.487 259.756 215.384 259.125 229.232C258.495 243.08 248.011 253.851 234.163 253.221C220.315 252.59 207.511 240.758 208.142 226.91C208.773 213.062 214.279 201.226 228.127 201.856Z" fill="#50AD75"/>
<path d="M222.441 215.966L232.163 222.987L239.67 229.66L247.565 237.26" stroke="white" stroke-width="3"/>
<path d="M233.095 212.584L226.768 219.702C226.538 219.962 226.331 220.241 226.151 220.537V220.537C223.345 225.143 227.805 230.746 232.923 229.045L234.764 228.433L241.953 225.071C242.197 224.957 242.452 224.87 242.715 224.812V224.812C246.008 224.08 248.477 227.785 246.532 230.542L244.283 233.732L239.082 239.522" stroke="white" stroke-width="3" stroke-linecap="round" stroke-linejoin="round"/>
<path d="M335.812 152.718C335.812 173.936 310.133 191.822 290.873 187.798C271.613 183.774 258.759 167.306 262.591 148.969C266.422 130.632 285.72 116.262 304.98 120.287C324.24 124.311 335.812 131.5 335.812 152.718Z" fill="#50AD75"/>
<path d="M308.827 130.159L302.787 147.068L296.281 160.663L288.581 175.21" stroke="white" stroke-width="3"/>
<path d="M318.515 143.936L305.211 137.935C304.745 137.725 304.261 137.556 303.764 137.43V137.43C295.83 135.42 289.55 144.329 294.288 150.873L295.917 153.124L304.058 161.97C304.326 162.261 304.56 162.58 304.757 162.922V162.922C307.266 167.272 302.935 172.448 298.099 170.878L292.324 169.005L281.499 164.056" stroke="white" stroke-width="3" stroke-linecap="round" stroke-linejoin="round"/>
<path d="M260.912 54.519C265.751 70.3651 258.354 95.5552 242.508 100.394C226.662 105.233 210.331 97.745 205.492 81.8989C200.653 66.0527 208.846 46.8931 224.692 42.054C240.538 37.2149 256.073 38.6728 260.912 54.519Z" fill="#50AD75"/>
<path d="M223.195 55.0935L232 65L238.5 74L245.195 84.0935" stroke="white" stroke-width="3"/>
<path d="M235.5 54L226.5 60.5V60.5C221.432 64.7159 225.401 72.3307 231.96 71.6581L233.5 71.5001L242.063 69.5971C242.354 69.5326 242.65 69.5 242.948 69.5V69.5C246.677 69.5 248.451 74.0898 245.692 76.5981L242.5 79.5L235.5 84.5" stroke="white" stroke-width="3" stroke-linecap="round" stroke-linejoin="round"/>
<path d="M342.5 272.178L368.771 223.298C375.335 211.084 388.331 203.726 402.182 204.381L416.348 205.051C434.411 205.905 449.037 220.026 450.525 238.048L451.237 246.671C451.404 248.7 451.399 250.739 451.222 252.767L447.755 292.445" stroke="#F19020" stroke-width="32" stroke-linecap="round" stroke-linejoin="round"/>
<path d="M293.296 250.608C293.778 248.592 295.72 247.279 297.77 247.582L507.323 278.541C509.592 278.877 511.115 281.048 510.658 283.296L500 335.658L491.228 384.348C488.85 397.55 476.113 406.24 462.954 403.638L290.496 369.54C277.127 366.897 268.639 353.665 271.81 340.411L293.296 250.608Z" fill="#20415B"/>
<path d="M325.586 251.249L353.5 254.5L342 291L332 338.5L328 377.158L298 371.158L304 332.5L315 286L325.586 251.249Z" fill="#FABB1C"/>
<path d="M460.424 271.147L492.424 275.647L476 340.5L465 404.159L435.5 398.159L443 350.5L453 305L460.424 271.147Z" fill="#FABB1C"/>
<path d="M77.6995 154.922C77.4832 152.653 79.2044 150.662 81.4812 150.548L105.347 149.351C107.446 149.246 109.268 150.783 109.518 152.869L110.479 160.862C111.227 167.092 116.648 171.694 122.917 171.42L131.315 171.053C137.841 170.767 142.94 165.315 142.788 158.786L142.6 150.673C142.554 148.718 143.93 147.016 145.852 146.651L167.165 142.6C169.479 142.16 171.67 143.805 171.894 146.15L189.755 333.526C189.946 335.531 188.615 337.366 186.649 337.808L165.112 342.646C162.783 343.169 160.517 341.548 160.259 339.175L158.118 319.454C157.401 312.851 151.456 308.086 144.856 308.824L139.168 309.459C132.988 310.15 128.36 315.447 128.504 321.664L128.906 338.956C128.954 341.044 127.388 342.818 125.311 343.029L99.9183 345.606C97.711 345.83 95.743 344.214 95.5325 342.006L77.6995 154.922Z" fill="#0274CA"/>
<path d="M139.538 82.9292L127.587 85.1985C124.726 85.7419 121.94 86.6306 119.293 87.8452L108.524 92.7851" stroke="#20415B" stroke-width="3" stroke-linecap="round"/>
<path d="M132.684 100.356L124.676 86.369L116.999 75.78" stroke="#20415B" stroke-width="3" stroke-linecap="round"/>
<path d="M118.827 102.393L122.711 90.1433C123.542 87.5244 124.669 85.0093 126.072 82.6469L131.753 73.0772" stroke="#20415B" stroke-width="3" stroke-linecap="round"/>
<path d="M211.304 390.23L218.087 381.488C219.285 379.945 220.606 378.502 222.038 377.173L230.24 369.558" stroke="#0274CA" stroke-width="3" stroke-linecap="round"/>
<path d="M205.894 375.341L213.736 378.006C217.096 379.148 220.606 379.787 224.153 379.902L234.325 380.231" stroke="#0274CA" stroke-width="3" stroke-linecap="round"/>
<path d="M216.207 365.443L218.623 376.196C219.107 378.35 219.788 380.454 220.657 382.483L224.423 391.272" stroke="#0274CA" stroke-width="3" stroke-linecap="round"/>
<path d="M39.7877 155.818C41.5083 153.245 45.3732 153.518 46.7163 156.306L64.8723 194L0.872314 214L39.7877 155.818Z" fill="#20415B"/>
<path d="M0.157489 217.531C-0.481774 215.417 0.714242 213.184 2.82887 212.545L100.831 182.918C102.874 182.301 105.041 183.395 105.757 185.405L119.758 224.731L129.862 257.348L139.369 295.875C140.39 300.009 137.993 304.217 133.917 305.449L39.5395 333.98C37.4249 334.62 35.1924 333.424 34.5531 331.309L0.157489 217.531Z" fill="#5FCE8C"/>
<path d="M109.372 257C109.372 278.116 92.3387 297.5 70.3723 297.5C48.4059 297.5 31.3723 278.116 31.3723 257C31.3723 236.173 48.1137 221 70.3723 221C92.6309 221 109.372 236.173 109.372 257Z" stroke="white" stroke-width="4"/>
<path d="M83.5523 245.875C93.0251 258.621 97.9926 266.966 98.0177 276.748C98.0355 283.692 91.9743 289.422 85.0914 288.93C73.8194 288.126 66.208 280.371 56.288 267.022C46.6189 254.012 42.7754 247.186 44.1103 238.19C45.0778 231.67 51.1518 226.782 57.7096 227.265C66.9177 227.942 74.129 233.195 83.5523 245.875Z" stroke="white" stroke-width="4"/>
<path d="M100.427 235.398C101.926 237.416 102.968 239.167 103.503 240.939C104.022 242.661 104.095 244.506 103.471 246.765C102.175 251.457 97.9155 257.853 88.4333 268.029C87.1186 269.44 85.5867 270.666 83.9206 271.653C67.9573 281.105 58.3969 284.999 52.1872 285.648C49.1656 285.964 47.0368 285.499 45.3519 284.601C43.6309 283.684 42.1901 282.221 40.7043 280.221C39.1831 278.175 38.2129 276.529 37.788 274.909C37.3834 273.366 37.4346 271.69 38.2869 269.509C39.1627 267.268 40.8754 264.521 43.7942 260.936C46.7025 257.364 50.7324 253.05 56.1514 247.675C57.4218 246.415 58.8516 245.323 60.4015 244.43C73.4071 236.942 82.2489 232.885 88.5165 231.656C91.6095 231.05 93.9303 231.164 95.7565 231.784C97.5555 232.395 99.0606 233.559 100.427 235.398Z" stroke="white" stroke-width="4"/>
</g>
<defs>
<clipPath id="clip0_90_1758">
<rect width="520" height="467" fill="white"/>
</clipPath>
</defs>
</svg>
