<svg width="144" height="144" viewBox="0 0 144 144" fill="none" xmlns="http://www.w3.org/2000/svg">
<rect x="24" y="24" width="120" height="120" rx="20" fill="white"/>
<path d="M13.5927 91.6673C12.8697 90.8502 12.9349 89.6045 13.7392 88.8674L97.0279 12.5359C97.859 11.7743 99.155 11.8496 99.8922 12.7024L109.352 23.6449L107.958 25.3693C105.269 28.6966 105.396 33.4849 108.258 36.665V36.665C110.595 39.2619 114.452 39.8239 117.433 38.0021L121.29 35.6449L134.383 50.2193C135.116 51.0353 135.055 52.2893 134.246 53.0304L50.9076 129.408C50.1001 130.148 48.8477 130.1 48.0981 129.302L36.4984 116.944L39.0253 114.012C41.165 111.53 41.0843 107.833 38.8381 105.446V105.446C36.5518 103.017 32.783 102.751 30.178 104.835L27.29 107.145L13.5927 91.6673Z" fill="#FABB1C"/>
<line x1="42.6339" y1="80.3903" x2="88.6339" y2="40.3903" stroke="white" stroke-width="2"/>
<path d="M26.6632 80.8121L59.6632 117.812" stroke="white" stroke-width="2" stroke-linecap="round" stroke-dasharray="6 6"/>
<line x1="53.6339" y1="90.3903" x2="99.6339" y2="50.3903" stroke="white" stroke-width="2"/>
<line x1="65.6339" y1="100.39" x2="111.634" y2="60.3903" stroke="white" stroke-width="2"/>
<circle cx="79.29" cy="46.1449" r="5" fill="#0593FF"/>
<circle cx="74.29" cy="70.1449" r="5" fill="#F19020"/>
<circle cx="74.29" cy="94.1449" r="5" fill="#0593FF"/>
</svg>
